<svg width="25" height="24" viewBox="0 0 25 24" fill="none" xmlns="http://www.w3.org/2000/svg">
<path d="M4.5 16.5V20C4.5 20.5304 4.71071 21.0391 5.08579 21.4142C5.46086 21.7893 5.96957 22 6.5 22H18.5C19.0304 22 19.5391 21.7893 19.9142 21.4142C20.2893 21.0391 20.5 20.5304 20.5 20V16.5M3.5 14V13C3.5 12.4696 3.71071 11.9609 4.08579 11.5858C4.46086 11.2107 4.96957 11 5.5 11H19.5C20.0304 11 20.5391 11.2107 20.9142 11.5858C21.2893 11.9609 21.5 12.4696 21.5 13V14M12.5 8V11M12.5 8C13.762 8 14.5 7.032 14.5 5.375C14.5 3.718 12.5 2 12.5 2C12.5 2 10.5 3.718 10.5 5.375C10.5 7.032 11.238 8 12.5 8Z" stroke="#E5E8EB" stroke-width="1.5" stroke-linecap="round" stroke-linejoin="round"/>
<path d="M3.5 14C3.5 14.7956 3.81607 15.5587 4.37868 16.1213C4.94129 16.6839 5.70435 17 6.5 17C7.29565 17 8.05871 16.6839 8.62132 16.1213C9.18393 15.5587 9.5 14.7956 9.5 14C9.5 14.7956 9.81607 15.5587 10.3787 16.1213C10.9413 16.6839 11.7044 17 12.5 17C13.2956 17 14.0587 16.6839 14.6213 16.1213C15.1839 15.5587 15.5 14.7956 15.5 14C15.5 14.7956 15.8161 15.5587 16.3787 16.1213C16.9413 16.6839 17.7044 17 18.5 17C19.2956 17 20.0587 16.6839 20.6213 16.1213C21.1839 15.5587 21.5 14.7956 21.5 14" stroke="#E5E8EB" stroke-width="1.5" stroke-linecap="round" stroke-linejoin="round"/>
</svg>
