<svg width="24" height="24" viewBox="0 0 24 24" fill="none" xmlns="http://www.w3.org/2000/svg">
<path d="M4.5 14H3.5V9C3.5 8.60218 3.65804 8.22064 3.93934 7.93934C4.22064 7.65804 4.60218 7.5 5 7.5H8C8.39782 7.5 8.77936 7.65803 9.06066 7.93934C9.34196 8.22064 9.5 8.60218 9.5 9V14H8.5H8V14.5V21.5H5V14.5V14H4.5ZM6.5 2.5C6.89782 2.5 7.27936 2.65804 7.56066 2.93934C7.84196 3.22064 8 3.60218 8 4C8 4.39782 7.84196 4.77936 7.56066 5.06066C7.27936 5.34196 6.89782 5.5 6.5 5.5C6.10218 5.5 5.72064 5.34196 5.43934 5.06066C5.15804 4.77936 5 4.39782 5 4C5 3.60218 5.15804 3.22064 5.43934 2.93934C5.72064 2.65804 6.10218 2.5 6.5 2.5Z" stroke="#F76448"/>
<path d="M17.9368 8.57148L20.3011 15.5H18H17.5V16V21.5H15.5V16V15.5H15H12.6989L15.0632 8.57148L15.0659 8.56369L15.0683 8.55581C15.2554 7.94187 15.8245 7.5 16.5 7.5C17.1755 7.5 17.7446 7.94187 17.9317 8.55581L17.9341 8.56369L17.9368 8.57148ZM16.5 2.5C16.8978 2.5 17.2794 2.65804 17.5607 2.93934C17.842 3.22064 18 3.60218 18 4C18 4.39782 17.842 4.77936 17.5607 5.06066C17.2794 5.34196 16.8978 5.5 16.5 5.5C16.1022 5.5 15.7206 5.34196 15.4393 5.06066C15.158 4.77936 15 4.39782 15 4C15 3.60218 15.158 3.22064 15.4393 2.93934C15.7206 2.65804 16.1022 2.5 16.5 2.5Z" stroke="#F76448"/>
</svg>
